<svg width="1080" height="1920" viewBox="0 0 1080 1920" fill="none" xmlns="http://www.w3.org/2000/svg">
  <defs>
    <linearGradient id="bg3" x1="150" y1="120" x2="930" y2="1780" gradientUnits="userSpaceOnUse">
      <stop stop-color="#F8F1E8"/>
      <stop offset="1" stop-color="#E4D1BC"/>
    </linearGradient>
  </defs>
  <rect width="1080" height="1920" fill="url(#bg3)"/>
  <rect x="56" y="1060" width="968" height="760" rx="44" fill="rgba(7,7,14,0.76)" fill-opacity="0.76"/>
  <rect x="90" y="1102" width="900" height="676" rx="42" fill="#FFFFFF"/>
  <text x="170" y="1212" fill="#111111" font-family="Segoe UI, Arial, sans-serif" font-size="74" font-weight="900">Ben boyle siraladim.</text>
  <text x="170" y="1298" fill="#6B6B6B" font-family="Segoe UI, Arial, sans-serif" font-size="46" font-weight="700">Senin 1 numaran hangisi?</text>
  <g transform="translate(150 1360)">
    <rect width="780" height="110" rx="28" fill="#FBF7F2" stroke="#E7D7CB"/>
    <rect y="136" width="780" height="110" rx="28" fill="#FBF7F2" stroke="#E7D7CB"/>
    <rect y="272" width="780" height="110" rx="28" fill="#FBF7F2" stroke="#E7D7CB"/>
    <rect x="20" y="20" width="70" height="70" rx="22" fill="#F4E1D4"/><text x="55" y="66" text-anchor="middle" fill="#C36D28" font-family="Segoe UI, Arial, sans-serif" font-size="34" font-weight="900">1</text>
    <rect x="20" y="156" width="70" height="70" rx="22" fill="#F4E1D4"/><text x="55" y="202" text-anchor="middle" fill="#C36D28" font-family="Segoe UI, Arial, sans-serif" font-size="34" font-weight="900">2</text>
    <rect x="20" y="292" width="70" height="70" rx="22" fill="#F4E1D4"/><text x="55" y="338" text-anchor="middle" fill="#C36D28" font-family="Segoe UI, Arial, sans-serif" font-size="34" font-weight="900">3</text>
    <text x="120" y="66" fill="#111111" font-family="Segoe UI, Arial, sans-serif" font-size="34" font-weight="800">Beratin mistik</text>
    <text x="120" y="202" fill="#111111" font-family="Segoe UI, Arial, sans-serif" font-size="34" font-weight="800">Ahmet</text>
    <text x="120" y="338" fill="#111111" font-family="Segoe UI, Arial, sans-serif" font-size="34" font-weight="800">Cemilin mustafa</text>
  </g>
</svg>
